<svg width="43" height="54" viewBox="0 0 43 54" fill="none" xmlns="http://www.w3.org/2000/svg">
<path d="M41.8031 28.5502C41.4121 27.0222 40.501 25.9015 39.1141 25.1677C38.5779 24.8855 38.0216 24.6517 37.4814 24.3816C37.2274 24.2566 36.9935 24.0994 36.7517 23.9543C36.6992 23.922 36.6589 23.8736 36.5823 23.8091C37.7595 23.6479 38.7876 23.2165 39.7067 22.515C39.6463 22.5432 39.5818 22.5715 39.5213 22.6037C38.7634 22.9706 37.9974 23.3213 37.1548 23.4544C36.9492 23.4866 36.7355 23.4866 36.5259 23.5148C36.3364 23.539 36.2397 23.4503 36.1671 23.285C35.8929 22.6803 35.9413 22.0675 36.1187 21.4547C36.1872 21.2169 36.284 20.983 36.3767 20.7492C37.5418 17.7981 36.5541 14.8955 33.8369 13.2627C33.1676 12.8596 32.4621 12.5451 31.7163 12.3113C30.8898 12.0532 30.2125 11.5856 29.6804 10.9123C29.249 10.3681 28.8418 9.79964 28.4427 9.22716C26.9994 7.15497 25.028 5.93342 22.5486 5.51817C22.206 5.46173 21.8593 5.42545 21.5166 5.3811C21.0167 5.3811 20.5168 5.3811 20.0169 5.3811C19.9645 5.3932 19.9161 5.40932 19.8637 5.41336C18.4284 5.51011 17.0497 5.83666 15.7193 6.36479C14.2357 6.95742 12.8771 7.7476 11.7724 8.91674C11.1435 9.58194 10.6597 10.3358 10.4662 11.2469C10.3614 11.7469 10.3614 12.2427 10.5065 12.7789C10.5831 12.537 10.6396 12.3314 10.7081 12.1379C11.2967 10.4931 12.4538 9.36423 13.9857 8.58615C15.4814 7.8242 17.086 7.50974 18.751 7.48555C19.9443 7.46942 21.1175 7.61456 22.2503 8.00158C23.5081 8.43296 24.5563 9.19894 25.5037 10.1141C26.2657 10.8519 27.0236 11.5937 27.7815 12.3355C27.7856 12.3395 27.7815 12.3556 27.7815 12.3596C27.326 12.146 26.8745 11.9162 26.4068 11.7267C25.2619 11.259 24.1854 10.6825 23.1735 9.96493C21.4722 8.75951 19.5653 8.21929 17.477 8.34829C16.3361 8.41683 15.2274 8.67888 14.1228 8.95302C13.5221 9.10219 13.0464 9.45696 12.5142 9.74723C12.5666 9.85205 12.6069 9.94074 12.6553 10.0254C12.994 10.618 13.4898 11.0575 14.0623 11.4122C15.5661 12.3395 17.2392 12.7709 18.9727 12.9603C20.0693 13.0813 21.1779 13.1055 22.2785 13.2103C23.7299 13.3514 25.1611 13.6094 26.5318 14.1174C27.4389 14.452 28.2935 14.8874 28.9708 15.609C29.12 15.7663 29.245 15.9477 29.3821 16.117C29.0636 15.988 28.7773 15.8308 28.479 15.7018C27.1204 15.1091 25.6811 14.8269 24.2338 14.5971C23.0969 14.4157 21.956 14.2665 20.8191 14.073C19.7548 13.8916 18.7026 13.6578 17.6423 13.4683C16.7433 13.307 15.8362 13.17 14.9694 12.8636C13.7196 12.4241 12.7763 11.6541 12.3086 10.3802C12.3006 10.36 12.2804 10.3439 12.2562 10.3157C12.0788 10.5616 11.9256 10.8075 11.7402 11.0292C11.5829 11.2187 11.5547 11.4163 11.5789 11.6501C11.6837 12.6015 12.1715 13.3393 12.8569 13.9642C13.6027 14.6495 14.4776 15.1333 15.4088 15.5163C16.8803 16.117 18.4002 16.5202 20.0048 16.5323C20.7304 16.5403 21.4521 16.5484 22.1777 16.5766C23.3509 16.6209 24.516 16.7298 25.6529 17.0483C27.7251 17.6288 29.1885 18.8786 29.8376 20.9669C30.0755 21.7329 30.2287 22.5231 30.4101 23.3052C30.5472 23.9059 30.6076 24.5267 30.8979 25.0871C31.3857 26.0224 32.1235 26.7078 33.0185 27.2359C33.2483 27.373 33.4861 27.4899 33.7603 27.635C32.8774 27.4536 32.1517 27.0747 31.5631 26.4417C30.9302 25.7644 30.5189 24.9581 30.2206 24.0954C29.9223 23.2246 29.6723 22.3376 29.3377 21.4789C28.5596 19.4793 27.1728 18.1489 25.028 17.6933C23.9556 17.4635 22.8631 17.399 21.7746 17.3224C20.678 17.2418 19.5734 17.2055 18.493 17.0362C15.3443 16.5444 12.9093 14.9277 11.1838 12.2427C11.1637 12.2105 11.1354 12.1782 11.083 12.1137C11.0992 12.2145 11.1032 12.2629 11.1153 12.3153C11.2765 13.0853 11.6636 13.7384 12.1877 14.3109C13.4213 15.6695 14.9331 16.5887 16.6949 17.0967C18.1664 17.52 19.6782 17.653 21.2021 17.7296C22.3995 17.7901 23.5928 17.8667 24.774 18.0804C26.6043 18.4109 27.9952 19.3503 28.8902 20.9951C28.9144 21.0435 28.9346 21.0919 28.9587 21.1443C28.9144 21.1322 28.8942 21.108 28.8741 21.0798C28.0275 19.8663 26.8906 19.056 25.4594 18.6851C24.1572 18.3464 22.8188 18.3142 21.4803 18.2981C20.4926 18.286 19.5049 18.3102 18.5171 18.2779C17.7915 18.2537 17.0618 18.1489 16.4208 17.7861C15.5379 17.2902 14.655 16.7822 13.8245 16.2057C12.5102 15.2946 11.5023 14.1134 10.9137 12.6056C10.9057 12.5854 10.8895 12.5693 10.8492 12.5128C10.8331 12.8918 10.7726 13.2304 10.8129 13.557C10.9177 14.3956 11.3048 15.1212 11.8087 15.7824C12.6956 16.9515 13.8567 17.778 15.1307 18.4674C15.2355 18.5238 15.3484 18.5682 15.4371 18.6448C16.1789 19.2898 17.0376 19.7494 17.9124 20.1808C18.0817 20.2654 18.2591 20.3582 18.3881 20.4912C18.7308 20.846 19.0977 21.1886 19.3638 21.5958C20.3515 23.1278 20.6982 24.8049 20.4079 26.6151C20.2829 27.3931 20.2023 28.1833 20.3031 28.9735C20.4281 29.9411 20.8393 30.7312 21.7101 31.2231C21.8391 31.2956 21.8794 31.3601 21.8633 31.5093C21.7544 32.6301 21.9923 33.646 22.8026 34.4725C23.7097 35.3957 24.8224 35.8714 26.1125 35.8754C27.8057 35.8835 28.858 34.8353 28.8378 33.2025C28.8297 32.4406 28.0073 31.6746 27.2494 31.719C26.8462 31.7431 26.5923 32.0495 26.6769 32.4325C26.6971 32.3922 26.7132 32.3559 26.7293 32.3237C26.8019 32.1826 26.8785 32.0253 27.068 32.0334C27.2575 32.0415 27.3461 32.1987 27.4026 32.3559C27.5155 32.6623 27.5356 32.9768 27.4026 33.2832C27.0639 34.0653 26.4189 34.4443 25.6086 34.5531C24.8103 34.662 24.258 34.2749 23.8589 33.6218C23.4961 33.0292 23.4114 32.368 23.4074 31.6867C23.4074 31.5254 23.4477 31.4488 23.621 31.4045C24.0766 31.2916 24.4878 31.0699 24.8587 30.7796C24.4072 30.9771 23.9516 31.1465 23.3993 31.1626C23.5122 30.5901 23.5847 30.0418 23.7299 29.5137C24.004 28.5341 24.3346 27.5665 24.6168 26.5909C25.1853 24.6316 24.8466 22.8819 23.363 21.4104C23.2421 21.2894 23.1171 21.1766 22.9921 21.0637C23.0526 21.0516 23.101 21.0596 23.1453 21.0798C23.613 21.3056 24.0847 21.5273 24.5442 21.7652C24.6208 21.8055 24.6934 21.9143 24.7095 22.003C24.8305 22.5674 24.9232 23.1399 25.0442 23.7083C25.3828 25.2887 25.8464 26.8287 26.6205 28.2599C27.3018 29.5258 28.1081 30.6909 29.3538 31.473C30.015 31.8883 30.6883 32.2914 31.3777 32.6583C32.313 33.1542 33.2805 33.5896 34.2118 34.0935C35.2156 34.6337 35.7035 35.7021 35.5301 36.8269C35.3648 37.9154 34.8367 38.8144 34.0304 39.5401C32.7685 40.677 31.4744 41.7735 30.1843 42.8822C30.0634 42.987 30.0432 43.0757 30.0795 43.2208C30.2609 43.9143 30.7004 44.3859 31.3454 44.6641C31.6034 44.773 31.8816 44.8294 32.1517 44.91C32.4299 44.91 32.704 44.91 32.9822 44.91C33.4055 44.7931 33.8288 44.6762 34.2481 44.5512C34.3771 44.5109 34.498 44.4384 34.6553 44.3658C34.4859 44.3053 34.3529 44.2569 34.2239 44.2045C33.4498 43.882 33.1959 43.3257 33.4781 42.5355C33.7159 41.8663 34.1473 41.318 34.5867 40.7737C35.0302 40.2214 35.4777 39.6691 35.905 39.1006C36.0865 38.8547 36.2276 38.5725 36.3646 38.2984C36.4291 38.1734 36.4936 38.1371 36.6347 38.1371C38.0135 38.1532 39.1625 37.6614 40.0494 36.589C40.5171 36.0246 40.6904 35.3392 40.8033 34.6458C40.8759 34.2024 40.8436 33.7428 40.8678 33.2953C40.8719 33.2348 40.888 33.1622 40.9243 33.1179C41.525 32.3761 41.8596 31.5254 41.9644 30.5821C41.9684 30.5377 41.9886 30.4934 41.9966 30.449C41.9966 30.1346 41.9966 29.8161 41.9966 29.5016C41.92 29.167 41.8797 28.8566 41.8031 28.5502ZM23.1372 24.8976C23.1534 25.6959 23.0486 26.474 22.851 27.2399C22.5325 28.4615 22.1939 29.675 21.8593 30.9046C21.5408 30.7796 21.2868 30.5417 21.1134 30.2071C20.8877 29.7596 20.7909 29.2799 20.7183 28.788C20.5893 27.9132 20.674 27.0464 20.8111 26.1756C20.9804 25.0952 20.9965 24.0107 20.6901 22.9464C20.4805 22.2167 20.1096 21.5837 19.5694 21.0435C19.521 20.9951 19.4766 20.9508 19.4323 20.9024C19.4283 20.8984 19.4283 20.8903 19.4041 20.846C20.3152 21.2773 21.186 21.7006 21.9278 22.3376C22.718 23.0109 23.1171 23.8575 23.1372 24.8976ZM29.0434 13.3191C29.0112 13.2869 28.9749 13.2587 28.9628 13.1942C29.3941 13.424 29.8537 13.6134 30.2488 13.8876C31.6921 14.8914 32.7685 16.2057 33.466 17.8223C33.6595 18.2739 33.7522 18.7496 33.7321 19.2455C33.6958 20.2493 33.6635 21.2572 33.6272 22.3054C33.212 21.9143 32.9096 21.4829 32.7726 20.9709C32.6032 20.338 32.4783 19.693 32.3775 19.0439C32.2283 18.0884 32.0711 17.141 31.5309 16.3146C30.8253 15.218 30.019 14.198 29.0434 13.3191ZM25.5037 22.9424C25.4755 22.7609 25.4473 22.5795 25.411 22.3497C25.5078 22.4263 25.5642 22.4747 25.6247 22.5231C26.6447 23.4019 27.2978 24.5187 27.7574 25.7684C28.2371 27.0626 28.862 28.272 29.8336 29.2718C30.1037 29.55 30.402 29.7959 30.66 30.0297C27.9791 28.397 26.0117 26.2038 25.5037 22.9424ZM30.4141 25.6677C30.1077 24.7807 29.882 23.8696 29.6159 22.9665C29.636 22.9585 29.6562 22.9464 29.6764 22.9383C29.8537 23.4544 30.015 23.9744 30.2125 24.4824C30.3859 24.9299 30.5754 25.3734 30.8011 25.7967C31.4502 27.0222 32.4379 27.8084 33.8127 28.1067C34.6351 28.2841 35.4495 28.4978 36.2558 28.7437C36.8928 28.9372 37.4693 29.2799 37.9772 29.7758C37.5781 29.6871 37.2153 29.5863 36.8484 29.5218C36.1106 29.3968 35.3608 29.3162 34.627 29.1751C32.575 28.78 31.1035 27.6753 30.4141 25.6677ZM37.7676 29.1146C38.0982 29.3525 38.3401 29.6387 38.5134 29.9854C38.2675 29.6992 38.0256 29.417 37.7676 29.1146ZM36.5501 37.8388C36.5743 37.7581 36.5904 37.6936 36.6146 37.6291C37.0984 36.198 36.8686 34.8514 36.1106 33.5775C35.8567 33.1501 35.4737 32.8397 35.0463 32.5978C34.2441 32.1463 33.4297 31.7189 32.6234 31.2715C32.2041 31.0376 31.7969 30.7836 31.3857 30.5377C31.3978 30.5216 31.4059 30.5095 31.418 30.4934C32.2364 30.9489 33.1152 31.2271 34.0223 31.4367C34.6754 31.5899 35.3326 31.723 35.9816 31.8923C36.7879 32.1019 37.5338 32.4285 38.0901 33.0937C38.3602 33.4162 38.5618 33.771 38.6908 34.1741C38.7271 34.287 38.711 34.3556 38.5941 34.408C38.2877 34.5571 37.9853 34.7144 37.691 34.8958C38.0458 34.799 38.4005 34.6982 38.7593 34.6015C39.0456 35.8472 37.9369 37.4921 36.5501 37.8388ZM40.7146 32.2793C40.6945 32.3196 40.6703 32.3559 40.6662 32.364C40.3881 31.9326 40.126 31.4851 39.8277 31.0699C39.6584 30.832 39.4205 30.6425 39.2189 30.4248C39.1746 30.3765 39.1222 30.312 39.1182 30.2515C39.0335 29.0541 38.3844 28.1954 37.4612 27.506C36.663 26.9094 35.7639 26.4981 34.8206 26.1958C34.1916 25.9942 33.7038 25.6193 33.3007 25.1153C32.6758 24.3373 32.2323 23.4584 31.8251 22.5594C31.684 22.2489 31.5712 21.9304 31.4462 21.616C31.4623 21.6079 31.4744 21.5999 31.4905 21.5958C31.5147 21.62 31.5389 21.6442 31.5591 21.6724C32.0832 22.4263 32.7645 22.9867 33.599 23.3697C33.6716 23.4019 33.7603 23.4745 33.7804 23.5471C34.1312 24.9662 35.0463 25.9257 36.2961 26.5788C36.8847 26.8852 37.5378 27.0747 38.1667 27.3085C38.5295 27.4456 38.9045 27.5544 39.2633 27.6995C40.3195 28.1269 40.8678 28.9614 41.0654 30.0459C41.2065 30.8199 41.0654 31.5698 40.7146 32.2793Z" fill="white"/>
<path d="M7.5555 25.0951C7.97881 24.954 8.41018 24.8371 8.83349 24.688C9.59141 24.4178 10.0228 23.8494 10.2163 23.0874C10.3251 22.6601 10.3131 22.2287 10.2324 21.7933C10.0833 20.9991 9.76074 20.2735 9.37371 19.576C8.71255 18.3867 8.6561 17.1531 9.00281 15.871C9.23261 15.0285 9.6156 14.2504 10.0067 13.4723C10.0752 13.3352 10.1276 13.1861 10.1881 13.045C10.1397 13.0409 10.1155 13.053 10.1034 13.0732C9.52691 13.8432 9.00685 14.6495 8.66014 15.5526C8.32955 16.4153 8.19651 17.3022 8.3618 18.2255C8.48678 18.935 8.80124 19.572 9.11166 20.209C9.32533 20.6524 9.55916 21.0999 9.67204 21.5716C9.91797 22.6117 9.5511 23.3858 8.62788 23.8292C8.34971 23.9623 8.05944 24.0671 7.7732 24.184C7.38215 24.3412 6.979 24.4703 6.60407 24.6517C6.12835 24.8815 5.83002 25.2766 5.71713 25.7966C5.70907 25.8248 5.69294 25.8531 5.67682 25.8813C5.67682 26.1716 5.67682 26.4618 5.67682 26.7521C5.73326 27.0061 5.78567 27.2641 5.84211 27.5181C5.88243 27.4415 5.87839 27.3689 5.88243 27.2963C5.90661 26.8085 5.99934 26.3449 6.28558 25.9337C6.59197 25.4822 7.05559 25.2604 7.5555 25.0951Z" fill="white"/>
<path d="M26.4349 37.5807C26.6768 37.7218 26.8824 37.9275 27.088 38.1169C27.1635 38.188 27.0836 38.5864 27.1156 38.6679C26.8777 39.0832 26.653 39.2454 26.3134 39.9515C25.5675 40.9473 24.9312 41.9832 24.1692 42.9668C23.9394 43.2652 23.5607 48.8231 26.0477 53.4044C26.0477 53.4044 16.8158 55.1522 5.62836 48.8231C5.62836 48.8231 12.6966 42.4093 12.5504 40.1287C12.5665 39.8303 12.631 39.528 12.5867 39.2458C12.494 38.6491 12.3771 38.0524 12.2077 37.4759C11.8368 36.21 12.1029 35.1014 12.9374 34.1016C12.9442 34.0936 12.951 34.086 12.9578 34.0786L13.1567 33.8545L15.2425 27.597H15.7238C15.2302 29.8141 14.8497 34.3751 16.8519 36.3015L17.481 36.7704C17.6059 36.8672 17.7269 36.8672 17.8801 36.8107C18.7765 36.4799 19.3414 36.1819 20.2164 36.1007C22.2414 35.913 24.5291 36.48 26.4349 37.5807Z" fill="white"/>
<path d="M14.1389 27.1674C14.8403 27.3851 15.5378 27.635 16.2393 27.8568C16.3239 27.885 16.4489 27.8608 16.5295 27.8165C17.2028 27.4536 17.6503 26.8973 17.9164 26.1837C17.9365 26.1273 17.9648 26.0708 17.9849 26.0144C18.0051 26.0184 18.0293 26.0224 18.0494 26.0265C18.0131 26.6756 17.9809 27.3287 17.9486 27.9737C18.4929 27.9293 18.9001 27.6471 19.0613 27.1553C19.3113 26.4014 19.1903 25.6395 19.0815 24.8533C18.6985 25.1516 18.3437 25.4338 17.9809 25.6999C17.4326 26.1071 16.844 26.4377 16.1586 26.5586C15.6386 26.6514 15.1709 26.2926 15.1588 25.7644C15.1508 25.3976 15.0218 25.1758 14.6509 25.0791C14.3808 25.0065 14.28 24.817 14.2921 24.5389C14.2961 24.4743 14.3042 24.4098 14.3162 24.3211C14.2759 24.305 14.2477 24.2929 14.2155 24.2808C13.8325 24.1397 13.6914 23.9099 13.7357 23.5068C13.7438 23.4302 13.7599 23.3496 13.7559 23.273C13.7518 23.0996 13.6994 22.9746 13.4938 22.9222C13.2681 22.8658 13.0544 22.7529 12.8367 22.6602C12.6835 22.5916 12.6391 22.4747 12.6714 22.3054C12.748 21.8982 12.7964 21.487 12.8851 21.0798C13.0463 20.3179 12.9455 19.6244 12.5625 18.931C12.2078 18.29 11.9296 17.6006 11.6595 16.9193C11.22 15.8066 10.7967 14.6858 10.5508 13.5086C10.5307 13.4159 10.5145 13.3272 10.4903 13.1902C10.0428 14.0005 9.61954 14.7665 9.34137 15.601C9.22445 15.9477 9.11963 16.3065 9.07125 16.6693C8.93015 17.7256 9.1156 18.7496 9.5631 19.7091C9.94206 20.5194 10.4097 21.2854 10.8169 22.0796C11.0023 22.4384 11.1757 22.8134 11.2846 23.2004C11.4337 23.7406 11.2402 24.1518 10.7443 24.4018C10.4258 24.563 10.0751 24.6679 9.73242 24.7807C9.22042 24.946 8.68826 25.0589 8.18835 25.2565C6.93052 25.7604 6.31773 26.7401 6.38627 28.0866C6.42255 28.8566 6.69266 29.5782 6.9144 30.3039C7.08775 30.8683 7.2732 31.4368 7.36593 32.0133C7.47075 32.6785 7.16838 33.0292 6.49915 33.1703C6.34999 33.2026 6.20082 33.2187 6.02747 33.2469C6.80152 33.7871 8.34558 33.5412 8.74873 32.3035C8.87774 31.9084 8.92209 31.5013 8.84549 31.0941C8.73664 30.5216 8.58344 29.9532 8.46653 29.3807C8.28914 28.5018 8.49072 28.0059 9.28492 27.5988C9.85337 27.3045 10.4742 27.1069 11.0709 26.8691C11.1152 26.8529 11.1596 26.8449 11.1999 26.8368C10.8209 27.0626 10.4258 27.2642 10.0711 27.5222C9.05513 28.2519 8.6681 29.2557 8.8979 30.4773C8.99869 31.0054 9.17607 31.5174 9.30911 32.0415C9.54697 32.9849 9.27283 33.6299 8.43831 34.1338C8.32946 34.1983 8.22061 34.2588 8.11579 34.3193C8.55119 34.3193 8.98256 34.3193 9.43006 34.3193C9.44215 34.15 9.45022 34.0129 9.45828 33.8758C9.53891 32.4285 9.62357 30.9852 9.70017 29.5379C9.73645 28.8566 9.95012 28.2519 10.3855 27.7278C10.7564 27.2803 11.2321 27.0021 11.8086 26.9134C12.6069 26.7804 13.3809 26.9295 14.1389 27.1674ZM13.8768 25.4218C13.776 25.833 13.0463 26.3047 12.4859 26.3692C12.9254 26.0749 13.4172 25.7362 13.8768 25.4218Z" fill="white"/>
<ellipse cx="21.5" cy="11.2137" rx="21.0471" ry="4.82859" transform="rotate(18.2649 21.5 11.2137)" fill="#F06292"/>
<ellipse cx="23.716" cy="7.28541" rx="8.44847" ry="4.74743" transform="rotate(19.4114 23.716 7.28541)" fill="#F06292"/>
<path d="M19.8957 32.7232C19.8957 32.7232 19.8957 33.9013 18.0632 34.9484" stroke="white" stroke-width="0.18325" stroke-linecap="round" stroke-linejoin="round" stroke-dasharray="0.26 0.26"/>
<path d="M20.0267 32.7232C20.0267 32.7232 20.1575 33.7704 18.4559 35.2102" stroke="white" stroke-width="0.18325" stroke-linecap="round" stroke-linejoin="round" stroke-dasharray="0.26 0.26"/>
<path d="M28.9274 31.6761C28.9274 31.6761 17.5397 36.6501 16.3104 28.2729" stroke="white" stroke-width="0.18325" stroke-linecap="round" stroke-linejoin="round" stroke-dasharray="0.26 0.26"/>
<path d="M19.8579 32.7238C19.8579 32.7238 20.2141 33.7171 18.8676 35.4935" stroke="white" stroke-width="0.18325" stroke-linecap="round" stroke-linejoin="round" stroke-dasharray="0.26 0.26"/>
<path d="M19.7492 32.7242C19.7492 32.7242 20.3095 33.6184 19.374 35.6416" stroke="white" stroke-width="0.18325" stroke-linecap="round" stroke-linejoin="round" stroke-dasharray="0.26 0.26"/>
</svg>
